<?xml version="1.0" encoding="UTF-8" standalone="no"?>
<svg
   xmlns:dc="http://purl.org/dc/elements/1.1/"
   xmlns:cc="http://creativecommons.org/ns#"
   xmlns:rdf="http://www.w3.org/1999/02/22-rdf-syntax-ns#"
   xmlns:svg="http://www.w3.org/2000/svg"
   xmlns="http://www.w3.org/2000/svg"
   xmlns:sodipodi="http://sodipodi.sourceforge.net/DTD/sodipodi-0.dtd"
   xmlns:inkscape="http://www.inkscape.org/namespaces/inkscape"
   version="1.1"
   id="svg2"
   xml:space="preserve"
   width="1122.52"
   height="793.70135"
   viewBox="0 0 1122.52 793.70135"
   sodipodi:docname="Logotipo e variações - fundo verde oliva.ai"><metadata
     id="metadata8"><rdf:RDF><cc:Work
         rdf:about=""><dc:format>image/svg+xml</dc:format><dc:type
           rdf:resource="http://purl.org/dc/dcmitype/StillImage" /></cc:Work></rdf:RDF></metadata><defs
     id="defs6"><clipPath
       clipPathUnits="userSpaceOnUse"
       id="clipPath20"><path
         d="M 0,595.276 H 841.89 V 0 H 0 Z"
         id="path18" /></clipPath></defs><sodipodi:namedview
     pagecolor="#ffffff"
     bordercolor="#666666"
     borderopacity="1"
     objecttolerance="10"
     gridtolerance="10"
     guidetolerance="10"
     inkscape:pageopacity="0"
     inkscape:pageshadow="2"
     inkscape:window-width="640"
     inkscape:window-height="480"
     id="namedview4" /><g
     id="g10"
     inkscape:groupmode="layer"
     inkscape:label="Logotipo e variações - fundo verde oliva"
     transform="matrix(1.3333333,0,0,-1.3333333,0,793.70133)"><path
       d="M 0,0 H 841.89 V 595.275 H 0 Z"
       style="fill:#7a6d28;fill-opacity:1;fill-rule:nonzero;stroke:none"
       id="path12" /><g
       id="g14"><g
         id="g16"
         clip-path="url(#clipPath20)"><g
           id="g22"
           transform="translate(318.4805,255.1535)"><path
             d="M 0,0 3.731,-7.446 H 1.517 l -2.936,6.716 c -0.814,0.022 -1.63,0.022 -2.445,0.003 0.005,-2.24 0.026,-4.48 0.064,-6.719 h -2.048 c 0.074,5.219 0.074,10.438 0,15.658 H -3.8 C -3.842,5.704 -3.864,3.196 -3.866,0.688 -3.083,0.662 -2.299,0.663 -1.515,0.691 l 2.81,7.522 H 3.381 L 0,0.134 Z"
             style="fill:#e3cb7e;fill-opacity:1;fill-rule:nonzero;stroke:none"
             id="path24" /></g><g
           id="g26"
           transform="translate(347.1787,255.4865)"><path
             d="m 0,0 c 0,4.795 -1.061,6.488 -3.983,6.488 -2.935,0 -4,-1.603 -4,-6.488 0,-4.865 1.095,-6.5 4,-6.5 C -1.016,-6.5 0,-4.776 0,0 m -9.915,0.005 c 0,5.589 1.452,8.143 5.932,8.143 4.482,0 5.914,-2.554 5.914,-8.143 0,-5.555 -1.432,-8.166 -5.914,-8.166 -4.48,0 -5.932,2.611 -5.932,8.166"
             style="fill:#e3cb7e;fill-opacity:1;fill-rule:nonzero;stroke:none"
             id="path28" /></g><g
           id="g30"
           transform="translate(371.2178,255.1535)"><path
             d="M 0,0 3.731,-7.446 H 1.517 l -2.936,6.716 c -0.814,0.022 -1.63,0.022 -2.445,0.003 0.005,-2.24 0.026,-4.48 0.064,-6.719 h -2.048 c 0.074,5.219 0.074,10.438 0,15.658 H -3.8 C -3.842,5.704 -3.864,3.196 -3.866,0.688 -3.083,0.662 -2.299,0.663 -1.515,0.691 l 2.81,7.522 H 3.381 L 0,0.134 Z"
             style="fill:#e3cb7e;fill-opacity:1;fill-rule:nonzero;stroke:none"
             id="path32" /></g><g
           id="g34"
           transform="translate(399.0469,249.4943)"><path
             d="M 0,0 -0.025,-1.788 H -8.54 c 0.074,5.22 0.074,10.439 0,15.659 h 8.316 l 0.026,-1.779 c -2.058,0.11 -4.169,0.174 -6.318,0.167 -0.026,-1.923 -0.04,-3.846 -0.042,-5.769 1.965,-0.001 3.921,0.041 5.89,0.128 L -0.702,5.04 C -2.653,5.126 -4.605,5.169 -6.557,5.168 -6.553,3.388 -6.539,1.606 -6.516,-0.175 -4.338,-0.193 -2.155,-0.121 0,0"
             style="fill:#e3cb7e;fill-opacity:1;fill-rule:nonzero;stroke:none"
             id="path36" /></g><g
           id="g38"
           transform="translate(423.7422,255.5324)"><path
             d="M 0,0 C 0,4.007 -1.06,6.173 -3.548,6.173 -4.549,6.173 -5.827,6.136 -6.681,6.1 -6.734,1.993 -6.733,-2.114 -6.679,-6.221 -5.785,-6.254 -4.412,-6.276 -3.553,-6.276 -0.969,-6.276 0,-3.976 0,0 m 2.12,-0.008 c 0,-5.269 -2.181,-7.917 -5.272,-7.917 -1.192,0 -3.409,0.065 -4.606,0.1 h -0.945 c 0.074,5.22 0.074,10.439 0,15.659 h 0.733 c 1.89,0.003 3.474,0.042 4.882,0.042 3.112,0 5.208,-2.646 5.208,-7.884"
             style="fill:#e3cb7e;fill-opacity:1;fill-rule:nonzero;stroke:none"
             id="path40" /></g><g
           id="g42"
           transform="translate(446.0137,260.3274)"><path
             d="m 0,0 -1.646,-7.911 c 1.598,-0.042 3.23,-0.042 4.832,0 L 1.57,-0.003 1.209,1.671 H 0.38 Z m 4.147,-12.62 -0.656,3.211 c -1.8,0.04 -3.648,0.038 -5.449,-10e-4 l -0.668,-3.21 h -2.199 c 0.661,2.58 1.286,5.16 1.881,7.739 0.623,2.638 1.233,5.279 1.798,7.919 H 2.736 C 3.288,0.429 3.883,-2.181 4.49,-4.79 c 0.585,-2.608 1.199,-5.221 1.857,-7.83 z"
             style="fill:#e3cb7e;fill-opacity:1;fill-rule:nonzero;stroke:none"
             id="path44" /></g><g
           id="g46"
           transform="translate(469.8154,247.7063)"><path
             d="m 0,0 h -1.994 c 0.352,5.214 0.637,10.432 0.782,15.658 H 1.493 C 2.252,12.425 3.229,8.614 4.138,5.343 h 0.205 c 0.915,3.285 1.88,7.089 2.634,10.315 H 9.682 C 9.82,10.439 10.109,5.22 10.464,0 H 8.476 L 8.227,12.812 H 7.824 L 5.265,2.696 H 3.206 L 0.646,12.812 H 0.249 Z"
             style="fill:#e3cb7e;fill-opacity:1;fill-rule:nonzero;stroke:none"
             id="path48" /></g><g
           id="g50"
           transform="translate(500.54,260.3274)"><path
             d="m 0,0 -1.646,-7.911 c 1.598,-0.042 3.231,-0.042 4.832,0 L 1.57,-0.003 1.209,1.671 H 0.38 Z m 4.147,-12.62 -0.656,3.211 c -1.8,0.04 -3.648,0.038 -5.449,-10e-4 l -0.668,-3.21 h -2.199 c 0.661,2.58 1.286,5.16 1.881,7.739 0.623,2.638 1.233,5.279 1.798,7.919 H 2.736 C 3.288,0.429 3.883,-2.181 4.49,-4.79 c 0.585,-2.608 1.199,-5.221 1.857,-7.83 z"
             style="fill:#e3cb7e;fill-opacity:1;fill-rule:nonzero;stroke:none"
             id="path52" /></g><g
           id="g54"
           transform="translate(526.9619,247.4162)"><path
             d="m 0,0 c -1.742,0.001 -3.569,0.378 -4.686,0.922 l 0.121,1.834 c 0.912,-0.66 2.812,-1.041 4.587,-1.041 2.513,0 3.47,0.872 3.47,2.349 0,1.623 -1.641,2.472 -3.684,3.548 -2.423,0.998 -4.354,1.878 -4.354,4.522 0,2.951 2.106,4.038 5.436,4.038 1.841,0 3.176,-0.215 4.066,-0.652 L 4.931,13.79 c -0.869,0.387 -2.366,0.678 -4.006,0.678 -2.407,0 -3.609,-0.837 -3.609,-2.422 0,-1.484 1.092,-2.318 3.526,-3.214 C 3.24,7.766 5.455,6.724 5.455,4.036 5.455,1.598 3.84,-0.002 0,-0.002 Z"
             style="fill:#e3cb7e;fill-opacity:1;fill-rule:nonzero;stroke:none"
             id="path56" /></g><g
           id="g58"
           transform="translate(237.4077,289.3362)"><path
             d="m 0,0 v 27.102 c 0,1.627 -1.319,2.946 -2.946,2.946 h -5.62 c -1.627,0 -2.947,1.32 -2.947,2.947 v 3.353 c 0,1.627 1.32,2.946 2.947,2.946 h 5.691 c 1.575,0 2.868,1.236 2.936,2.809 0.075,1.757 0.22,3.541 0.437,5.35 0.331,2.778 1.026,5.302 2.085,7.569 1.056,2.265 2.584,4.124 4.577,5.574 1.995,1.451 4.683,2.176 8.069,2.176 2.294,0 4.712,-0.424 7.25,-1.27 1.633,-0.543 3.248,-1.163 4.85,-1.857 1.017,-0.443 2.027,-0.89 3.033,-1.343 1.054,-0.475 1.726,-1.53 1.726,-2.685 v -3.125 c 0,-2.1 -2.131,-3.525 -4.072,-2.722 -2.963,1.225 -6.544,2.605 -7.621,2.939 -1.874,0.545 -3.626,0.817 -5.257,0.817 -2.238,0 -3.839,-0.725 -4.805,-2.176 C 9.849,50.564 9.472,49.658 9.201,48.631 8.928,47.602 8.747,46.545 8.656,45.459 8.565,44.371 8.52,43.297 8.52,42.241 c 0,-1.628 1.318,-2.947 2.946,-2.947 h 10.242 c 1.628,0 2.947,-1.319 2.947,-2.946 v -3.353 c 0,-1.627 -1.319,-2.947 -2.947,-2.947 H 11.466 C 9.838,30.048 8.52,28.729 8.52,27.102 V 0 C 8.52,-1.628 7.2,-2.946 5.573,-2.946 H 2.946 C 1.319,-2.946 0,-1.628 0,0"
             style="fill:#fff1da;fill-opacity:1;fill-rule:nonzero;stroke:none"
             id="path60" /></g><g
           id="g62"
           transform="translate(276.2114,348.028)"><path
             d="m 0,0 h 3.542 c 1.35,0 2.444,-1.094 2.444,-2.444 v -56.751 c 0,-1.349 -1.094,-2.443 -2.444,-2.443 H 0 c -1.35,0 -2.444,1.094 -2.444,2.443 V -2.444 C -2.444,-1.094 -1.35,0 0,0"
             style="fill:#fff1da;fill-opacity:1;fill-rule:nonzero;stroke:none"
             id="path64" /></g><g
           id="g66"
           transform="translate(342.8193,328.7214)"><path
             d="m 0,0 h 3.755 c 1.191,0 2.156,-0.965 2.156,-2.156 v -2.349 c 0,-1.791 2.073,-2.822 3.474,-1.706 0.554,0.441 1.103,0.865 1.648,1.271 1.661,1.237 3.384,2.279 5.167,3.127 1.781,0.845 3.701,1.496 5.756,1.948 2.053,0.454 4.29,0.68 6.708,0.68 h 2.039 0.021 c 1.172,-0.001 2.109,-0.983 2.109,-2.156 v -4.298 c 0,-1.191 -0.965,-2.156 -2.156,-2.156 h -0.2 c -1.27,0 -2.434,-0.032 -3.49,-0.091 -1.058,-0.062 -2.1,-0.198 -3.129,-0.408 -1.027,-0.212 -2.054,-0.53 -3.081,-0.952 -1.028,-0.423 -2.176,-1.028 -3.444,-1.813 -3.384,-2.007 -6.984,-4.966 -10.802,-8.877 -0.395,-0.404 -0.62,-0.957 -0.62,-1.522 v -18.809 c 0,-1.191 -0.965,-2.156 -2.156,-2.156 H 0 c -1.19,0 -2.156,0.965 -2.156,2.156 V -2.156 C -2.156,-0.965 -1.19,0 0,0"
             style="fill:#fff1da;fill-opacity:1;fill-rule:nonzero;stroke:none"
             id="path68" /></g><g
           id="g70"
           transform="translate(402.5723,321.1067)"><path
             d="m 0,0 c -1.511,0 -3.052,-0.167 -4.623,-0.498 -1.571,-0.334 -3.067,-0.847 -4.486,-1.541 -1.421,-0.695 -2.706,-1.573 -3.852,-2.629 -0.504,-0.464 -0.967,-0.966 -1.389,-1.505 -0.854,-1.09 -0.392,-2.679 0.916,-3.132 4.78,-1.653 9.559,-2.479 14.341,-2.479 0.966,0 2.099,0.045 3.399,0.136 1.298,0.091 2.538,0.317 3.717,0.68 1.178,0.363 2.188,0.905 3.036,1.631 0.846,0.725 1.269,1.754 1.269,3.083 0,1.389 -0.453,2.493 -1.36,3.308 -0.905,0.816 -2.009,1.45 -3.307,1.904 C 6.359,-0.589 5,-0.303 3.581,-0.181 2.16,-0.061 0.966,0 0,0 m -12.581,-18.515 c -1.83,0.575 -3.424,-1.524 -2.224,-3.02 0.01,-0.013 0.02,-0.026 0.031,-0.039 1.026,-1.268 2.233,-2.312 3.626,-3.127 1.389,-0.816 2.913,-1.42 4.577,-1.813 1.661,-0.393 3.338,-0.589 5.029,-0.589 1.572,0 3.129,0.15 4.669,0.453 1.541,0.301 2.977,0.694 4.306,1.178 1.813,0.726 3.444,1.527 4.895,2.403 1.45,0.876 2.689,1.736 3.717,2.583 0.349,0.276 0.687,0.552 1.014,0.827 1.031,0.87 2.614,0.43 3.086,-0.834 l 1.584,-4.238 c 0.289,-0.772 0.072,-1.657 -0.556,-2.19 -3.257,-2.764 -6.674,-4.909 -10.25,-6.436 -3.959,-1.692 -8.294,-2.539 -13.007,-2.539 -3.205,0 -6.209,0.5 -9.02,1.496 -2.811,0.997 -5.258,2.416 -7.342,4.26 -2.085,1.843 -3.732,4.11 -4.94,6.799 -1.211,2.688 -1.813,5.725 -1.813,9.11 0,3.503 0.679,6.676 2.039,9.517 1.361,2.839 3.186,5.258 5.484,7.252 2.296,1.994 4.97,3.535 8.022,4.623 3.051,1.088 6.27,1.631 9.654,1.631 2.356,0 4.744,-0.257 7.162,-0.769 2.416,-0.515 4.607,-1.361 6.57,-2.538 1.964,-1.179 3.581,-2.736 4.851,-4.669 1.269,-1.935 1.902,-4.292 1.902,-7.07 0,-2.78 -0.588,-5.092 -1.767,-6.935 -1.177,-1.843 -2.689,-3.308 -4.532,-4.396 -1.844,-1.087 -3.929,-1.858 -6.254,-2.312 -2.328,-0.454 -4.668,-0.68 -7.025,-0.68 -3.144,0 -6.164,0.302 -9.065,0.908 -1.474,0.306 -2.948,0.69 -4.423,1.154"
             style="fill:#fff1da;fill-opacity:1;fill-rule:nonzero;stroke:none"
             id="path72" /></g><g
           id="g74"
           transform="translate(326.9766,301.6194)"><path
             d="m 0,0 c -0.968,-1.722 -2.252,-3.127 -3.853,-4.215 -1.602,-1.088 -3.415,-1.902 -5.439,-2.447 -2.024,-0.543 -4.124,-0.816 -6.299,-0.816 -2.176,0 -4.276,0.273 -6.301,0.816 -2.025,0.545 -3.822,1.359 -5.392,2.447 -1.573,1.088 -2.841,2.493 -3.808,4.215 -0.968,1.723 -1.451,3.763 -1.451,6.119 0,0.135 0.018,0.256 0.02,0.388 1.93,-1.563 4.131,-2.808 6.638,-3.697 2.811,-0.997 5.816,-1.496 9.02,-1.496 4.714,0 9.048,0.847 13.007,2.538 1.801,0.77 3.562,1.697 5.282,2.78 C 1.429,6.458 1.45,6.296 1.45,6.119 1.45,3.763 0.965,1.723 0,0 m -27.195,16.498 c 1.571,1.057 3.384,1.828 5.44,2.311 2.053,0.483 4.108,0.725 6.164,0.725 2.175,0 4.29,-0.242 6.345,-0.725 2.053,-0.483 3.867,-1.268 5.438,-2.356 0.774,-0.536 1.474,-1.148 2.101,-1.831 -0.254,-0.161 -0.478,-0.32 -0.746,-0.481 -1.45,-0.876 -3.082,-1.677 -4.895,-2.402 -1.329,-0.485 -2.764,-0.878 -4.305,-1.179 -1.54,-0.303 -3.097,-0.453 -4.669,-0.453 -1.692,0 -3.369,0.195 -5.03,0.589 -1.145,0.27 -5.048,1.725 -8.036,3.916 0.657,0.711 1.386,1.342 2.193,1.886 m 34.763,-0.77 c -1.36,2.778 -3.188,5.106 -5.484,6.979 -2.297,1.873 -4.955,3.277 -7.977,4.216 -3.022,0.936 -6.194,1.405 -9.518,1.405 -3.443,0 -6.693,-0.485 -9.743,-1.451 -3.053,-0.968 -5.742,-2.389 -8.069,-4.26 -2.326,-1.874 -4.155,-4.186 -5.483,-6.935 -1.33,-2.75 -1.995,-5.937 -1.995,-9.563 0,-3.626 0.681,-6.83 2.04,-9.609 1.36,-2.78 3.203,-5.12 5.529,-7.025 2.327,-1.904 5,-3.339 8.022,-4.305 3.022,-0.966 6.194,-1.451 9.519,-1.451 3.444,0 6.692,0.5 9.743,1.497 3.052,0.996 5.725,2.447 8.024,4.35 2.295,1.903 4.108,4.245 5.437,7.025 1.328,2.779 1.995,5.951 1.995,9.518 0,3.626 -0.679,6.828 -2.04,9.609"
             style="fill:#fff1da;fill-opacity:1;fill-rule:nonzero;stroke:none"
             id="path76" /></g><g
           id="g78"
           transform="translate(450.5156,324.1799)"><path
             d="m 0,0 c -0.478,0 -1.085,-0.03 -1.821,-0.09 -0.738,-0.059 -1.445,-0.189 -2.12,-0.388 -0.678,-0.199 -1.265,-0.498 -1.762,-0.896 -0.499,-0.399 -0.747,-0.936 -0.747,-1.612 0,-0.28 0.079,-0.558 0.239,-0.837 0.158,-0.279 0.517,-0.557 1.074,-0.836 1.474,-0.757 3.982,-1.275 7.527,-1.553 3.145,-0.279 5.694,-0.678 7.645,-1.194 2.031,-0.559 3.664,-1.434 4.899,-2.629 1.233,-1.194 1.852,-2.907 1.852,-5.136 0,-1.754 -0.39,-3.177 -1.165,-4.272 -0.777,-1.095 -1.773,-1.962 -2.987,-2.598 -1.216,-0.637 -2.569,-1.064 -4.062,-1.284 -1.493,-0.218 -2.937,-0.329 -4.331,-0.329 -1.394,0 -2.777,0.159 -4.151,0.478 -1.373,0.319 -2.818,0.836 -4.331,1.553 -1.274,0.558 -2.388,1.125 -3.344,1.703 -0.956,0.577 -1.773,1.084 -2.449,1.523 -0.41,0.266 -0.788,0.532 -1.135,0.798 -0.57,0.439 -0.896,1.116 -0.896,1.834 v 3.469 c 0,1.038 1.222,1.56 1.986,0.857 0.358,-0.331 0.742,-0.659 1.15,-0.985 1.293,-1.036 2.707,-1.972 4.241,-2.807 1.533,-0.836 3.106,-1.504 4.718,-2.001 1.613,-0.498 3.096,-0.747 4.45,-0.747 0.438,0 1.055,0.009 1.852,0.03 0.797,0.02 1.573,0.119 2.329,0.298 0.695,0.165 1.306,0.413 1.834,0.746 0.612,0.387 1.012,1.086 0.97,1.809 -0.04,0.684 -0.387,1.167 -1.041,1.447 -0.697,0.299 -1.345,0.528 -1.942,0.687 -1.473,0.359 -3.623,0.658 -6.45,0.896 -1.394,0.12 -2.897,0.308 -4.511,0.567 -1.612,0.259 -3.105,0.707 -4.479,1.344 -1.374,0.637 -2.509,1.524 -3.404,2.659 -0.896,1.135 -1.345,2.598 -1.345,4.39 0,1.712 0.358,3.126 1.075,4.241 0.717,1.114 1.644,2.01 2.778,2.688 1.135,0.677 2.409,1.155 3.823,1.433 1.413,0.278 2.837,0.419 4.27,0.419 1.394,0 2.797,-0.171 4.211,-0.508 C 5.863,4.828 7.228,4.32 8.543,3.644 9.816,3.006 10.922,2.39 11.857,1.792 c 0.936,-0.597 1.722,-1.115 2.36,-1.553 0.008,-0.005 0.014,-0.01 0.021,-0.015 1.166,-0.846 1.831,-2.219 1.831,-3.659 v -2.063 c 0,-0.89 -1.022,-1.393 -1.716,-0.837 -0.476,0.38 -0.989,0.77 -1.54,1.168 -1.294,0.936 -2.678,1.782 -4.152,2.539 C 7.188,-1.872 5.694,-1.245 4.182,-0.747 2.668,-0.249 1.274,0 0,0"
             style="fill:#fff1da;fill-opacity:1;fill-rule:nonzero;stroke:none"
             id="path80" /></g><g
           id="g82"
           transform="translate(500.1338,321.1071)"><path
             d="m 0,0 c -0.725,0 -1.646,-0.045 -2.765,-0.136 -1.119,-0.09 -2.191,-0.288 -3.217,-0.589 -1.029,-0.303 -1.918,-0.756 -2.674,-1.359 -0.756,-0.606 -1.133,-1.421 -1.133,-2.448 0,-0.424 0.121,-0.847 0.362,-1.27 0.24,-0.424 0.785,-0.846 1.631,-1.268 2.236,-1.149 6.043,-1.936 11.422,-2.358 4.774,-0.423 8.643,-1.028 11.603,-1.812 3.083,-0.847 5.56,-2.176 7.433,-3.989 1.873,-1.813 2.812,-4.412 2.812,-7.795 0,-2.661 -0.591,-4.821 -1.768,-6.482 -1.18,-1.662 -2.691,-2.978 -4.534,-3.944 -1.844,-0.967 -3.898,-1.615 -6.163,-1.947 -2.267,-0.332 -4.458,-0.5 -6.572,-0.5 -2.117,0 -4.215,0.242 -6.3,0.726 -2.085,0.483 -4.277,1.268 -6.573,2.356 -1.934,0.846 -3.625,1.708 -5.076,2.584 -1.45,0.876 -2.69,1.646 -3.717,2.313 -0.622,0.402 -1.196,0.806 -1.721,1.21 -0.865,0.666 -1.361,1.693 -1.361,2.784 v 5.264 c 0,1.575 1.857,2.368 3.015,1.3 0.544,-0.501 1.126,-0.999 1.745,-1.495 1.963,-1.573 4.109,-2.992 6.435,-4.26 2.327,-1.269 4.715,-2.283 7.162,-3.036 2.447,-0.757 4.698,-1.134 6.753,-1.134 0.664,0 1.601,0.015 2.81,0.046 1.208,0.03 2.387,0.181 3.536,0.452 1.053,0.25 1.98,0.626 2.781,1.132 0.929,0.587 1.537,1.648 1.472,2.746 -0.06,1.038 -0.586,1.771 -1.579,2.196 -1.058,0.453 -2.041,0.8 -2.947,1.042 -2.236,0.545 -5.499,0.998 -9.789,1.359 -2.116,0.183 -4.396,0.468 -6.844,0.862 -2.447,0.393 -4.715,1.073 -6.799,2.039 -2.085,0.967 -3.807,2.313 -5.167,4.035 -1.359,1.722 -2.04,3.943 -2.04,6.662 0,2.598 0.544,4.744 1.632,6.436 1.088,1.691 2.493,3.05 4.216,4.08 1.722,1.027 3.655,1.752 5.802,2.175 2.144,0.422 4.305,0.635 6.479,0.635 2.116,0 4.245,-0.259 6.392,-0.771 2.143,-0.514 4.215,-1.285 6.21,-2.312 1.932,-0.967 3.61,-1.903 5.031,-2.81 1.419,-0.906 2.612,-1.692 3.58,-2.356 0.011,-0.008 0.022,-0.016 0.033,-0.024 1.769,-1.283 2.778,-3.366 2.778,-5.551 v -3.132 c 0,-1.35 -1.551,-2.114 -2.606,-1.27 -0.72,0.577 -1.499,1.168 -2.335,1.773 -1.966,1.419 -4.065,2.703 -6.3,3.852 C 10.908,-2.841 8.642,-1.89 6.346,-1.133 4.049,-0.378 1.935,0 0,0"
             style="fill:#fff1da;fill-opacity:1;fill-rule:nonzero;stroke:none"
             id="path84" /></g><g
           id="g86"
           transform="translate(554.7187,321.1067)"><path
             d="m 0,0 c -1.512,0 -3.052,-0.167 -4.623,-0.498 -1.571,-0.334 -3.067,-0.847 -4.486,-1.541 -1.421,-0.695 -2.706,-1.573 -3.853,-2.629 -0.504,-0.464 -0.967,-0.966 -1.389,-1.505 -0.853,-1.09 -0.392,-2.679 0.916,-3.132 4.781,-1.653 9.56,-2.479 14.342,-2.479 0.965,0 2.099,0.045 3.399,0.136 1.298,0.091 2.538,0.317 3.716,0.68 1.178,0.363 2.189,0.905 3.037,1.631 0.846,0.725 1.268,1.754 1.268,3.083 0,1.389 -0.452,2.493 -1.359,3.308 -0.906,0.816 -2.01,1.45 -3.308,1.904 C 6.359,-0.589 4.999,-0.303 3.58,-0.181 2.16,-0.061 0.965,0 0,0 m -12.581,-18.515 c -1.83,0.575 -3.425,-1.524 -2.225,-3.02 0.01,-0.013 0.021,-0.026 0.031,-0.039 1.027,-1.268 2.234,-2.312 3.626,-3.127 1.389,-0.816 2.914,-1.42 4.578,-1.813 1.661,-0.393 3.337,-0.589 5.029,-0.589 1.571,0 3.129,0.15 4.669,0.453 1.541,0.301 2.976,0.694 4.306,1.178 1.813,0.726 3.444,1.527 4.894,2.403 1.45,0.876 2.69,1.736 3.717,2.583 0.35,0.276 0.687,0.552 1.015,0.827 1.03,0.87 2.614,0.43 3.086,-0.834 l 1.584,-4.238 c 0.289,-0.772 0.072,-1.657 -0.557,-2.19 -3.257,-2.764 -6.674,-4.909 -10.25,-6.436 -3.959,-1.692 -8.293,-2.539 -13.007,-2.539 -3.204,0 -6.209,0.5 -9.019,1.496 -2.811,0.997 -5.258,2.416 -7.342,4.26 -2.085,1.843 -3.732,4.11 -4.941,6.799 -1.21,2.688 -1.813,5.725 -1.813,9.11 0,3.503 0.679,6.676 2.039,9.517 1.361,2.839 3.187,5.258 5.485,7.252 2.295,1.994 4.97,3.535 8.022,4.623 3.051,1.088 6.269,1.631 9.654,1.631 2.356,0 4.743,-0.257 7.161,-0.769 2.416,-0.515 4.608,-1.361 6.571,-2.538 1.964,-1.179 3.58,-2.736 4.851,-4.669 1.268,-1.935 1.902,-4.292 1.902,-7.07 0,-2.78 -0.589,-5.092 -1.767,-6.935 -1.178,-1.843 -2.69,-3.308 -4.532,-4.396 -1.844,-1.087 -3.929,-1.858 -6.254,-2.312 -2.328,-0.454 -4.668,-0.68 -7.025,-0.68 -3.144,0 -6.165,0.302 -9.065,0.908 -1.475,0.306 -2.949,0.69 -4.423,1.154"
             style="fill:#fff1da;fill-opacity:1;fill-rule:nonzero;stroke:none"
             id="path88" /></g><g
           id="g90"
           transform="translate(583.1621,328.7214)"><path
             d="m 0,0 h 3.755 c 1.19,0 2.156,-0.965 2.156,-2.156 v -2.349 c 0,-1.791 2.073,-2.822 3.474,-1.706 0.553,0.441 1.103,0.865 1.648,1.271 1.661,1.237 3.383,2.279 5.166,3.127 1.782,0.845 3.701,1.496 5.756,1.948 2.054,0.454 4.291,0.68 6.708,0.68 h 2.039 0.022 c 1.172,-0.001 2.109,-0.983 2.109,-2.156 v -4.298 c 0,-1.191 -0.966,-2.156 -2.156,-2.156 h -0.2 c -1.271,0 -2.434,-0.032 -3.491,-0.091 -1.057,-0.062 -2.099,-0.198 -3.128,-0.408 -1.028,-0.212 -2.054,-0.53 -3.082,-0.952 -1.028,-0.423 -2.175,-1.028 -3.444,-1.813 -3.384,-2.007 -6.983,-4.966 -10.802,-8.877 -0.394,-0.404 -0.619,-0.957 -0.619,-1.522 v -18.809 c 0,-1.191 -0.966,-2.156 -2.156,-2.156 H 0 c -1.191,0 -2.156,0.965 -2.156,2.156 V -2.156 C -2.156,-0.965 -1.191,0 0,0"
             style="fill:#fff1da;fill-opacity:1;fill-rule:nonzero;stroke:none"
             id="path92" /></g><g
           id="g94"
           transform="translate(453.0479,287.1076)"><path
             d="m 0,0 c -7.818,0 -15.222,3.142 -19.963,8.341 -0.983,1.077 -0.782,2.779 0.411,3.617 l 2.174,1.525 c 0.988,0.694 2.332,0.554 3.161,-0.324 C -10.876,9.625 -5.621,7.494 0,7.494 c 5.703,0 11.004,2.179 14.335,5.792 0.817,0.886 2.159,1.04 3.154,0.36 l 2.193,-1.498 C 20.888,11.324 21.107,9.624 20.137,8.533 15.403,3.215 7.935,0 0,0"
             style="fill:#e3cb7e;fill-opacity:1;fill-rule:nonzero;stroke:none"
             id="path96" /></g></g></g></g></svg>
